HIERARCHY
ROOT Hips
{
 OFFSET 0.000000 0.000000 0.000000
 CHANNELS 6 Xposition Yposition Zposition Yrotation Xrotation Zrotation
 JOINT Chest
 {
  OFFSET 0.000000 9.585900 0.002600
  CHANNELS 3 Yrotation Xrotation Zrotation
  JOINT Chest2
  {
   OFFSET 0.000000 9.601200 -0.005300
   CHANNELS 3 Yrotation Xrotation Zrotation
   JOINT Chest3
   {
    OFFSET 0.000000 9.561800 0.000000
    CHANNELS 3 Yrotation Xrotation Zrotation
    JOINT Chest4
    {
     OFFSET 0.000000 9.552100 0.000000
     CHANNELS 3 Yrotation Xrotation Zrotation
     JOINT Neck
     {
      OFFSET 0.000000 14.453000 0.000000
      CHANNELS 3 Yrotation Xrotation Zrotation
      JOINT Head
      {
       OFFSET 0.000000 8.936500 -0.011300
       CHANNELS 3 Yrotation Xrotation Zrotation
       End Site
       {
        OFFSET 0.000000 17.073600 -0.006000
       }
      }
     }
     JOINT RightCollar
     {
      OFFSET -2.921100 9.558500 0.000000
      CHANNELS 3 Yrotation Xrotation Zrotation
      JOINT RightShoulder
      {
       OFFSET -13.519700 0.000000 0.000000
       CHANNELS 3 Yrotation Xrotation Zrotation
       JOINT RightElbow
       {
        OFFSET 0.000000 -29.696600 0.000000
        CHANNELS 3 Yrotation Xrotation Zrotation
        JOINT RightWrist
        {
         OFFSET 0.000000 -24.004700 0.000000
         CHANNELS 3 Yrotation Xrotation Zrotation
         End Site
         {
          OFFSET 0.000000 -17.728500 0.000000
         }
        }
       }
      }
     }
     JOINT LeftCollar
     {
      OFFSET 2.921100 9.558500 0.000000
      CHANNELS 3 Yrotation Xrotation Zrotation
      JOINT LeftShoulder
      {
       OFFSET 13.519700 0.000000 0.000000
       CHANNELS 3 Yrotation Xrotation Zrotation
       JOINT LeftElbow
       {
        OFFSET 0.000000 -29.696600 0.000000
        CHANNELS 3 Yrotation Xrotation Zrotation
        JOINT LeftWrist
        {
         OFFSET 0.000000 -24.004700 0.000000
         CHANNELS 3 Yrotation Xrotation Zrotation
         End Site
         {
          OFFSET 0.000000 -17.728500 0.000000
         }
        }
       }
      }
     }
    }
   }
  }
 }
 JOINT RightHip
 {
  OFFSET -7.771700 -0.012900 -0.001300
  CHANNELS 3 Yrotation Xrotation Zrotation
  JOINT RightKnee
  {
   OFFSET 0.000000 -40.869800 0.001200
   CHANNELS 3 Yrotation Xrotation Zrotation
   JOINT RightAnkle
   {
    OFFSET 0.000000 -39.717900 0.002100
    CHANNELS 3 Yrotation Xrotation Zrotation
    JOINT RightToe
    {
     OFFSET 0.000000 -4.965400 11.033500
     CHANNELS 3 Yrotation Xrotation Zrotation
     End Site
     {
      OFFSET 0.000000 -1.423100 5.872300
     }
    }
   }
  }
 }
 JOINT LeftHip
 {
  OFFSET 7.771700 -0.012900 -0.001300
  CHANNELS 3 Yrotation Xrotation Zrotation
  JOINT LeftKnee
  {
   OFFSET 0.000000 -40.869800 0.001200
   CHANNELS 3 Yrotation Xrotation Zrotation
   JOINT LeftAnkle
   {
    OFFSET 0.000000 -39.717900 0.002100
    CHANNELS 3 Yrotation Xrotation Zrotation
    JOINT LeftToe
    {
     OFFSET 0.000000 -4.965400 11.033500
     CHANNELS 3 Yrotation Xrotation Zrotation
     End Site
     {
      OFFSET 0.000000 -1.423100 5.872300
     }
    }
   }
  }
 }
}
MOTION
Frames: 13
Frame Time: 0.008333
-219.011508 57.878607 25.416164 173.272405 -49.401054 -3.499630 5.181188 22.400337 3.023009 2.712751 12.826935 1.512000 3.480915 16.026154 2.001085 2.715144 12.830041 1.512356 0.249902 15.385810 3.280635 -0.760308 -7.168014 6.043356 1.742007 2.095191 0.939278 -0.555706 -15.580883 -9.296186 -32.340989 -50.908561 77.151503 11.347438 -4.337784 -27.120779 -9.965297 -0.662956 -0.705574 2.885534 -16.461580 11.995952 27.726487 -12.431212 -85.626732 13.126006 -2.970181 19.192799 4.385190 -22.878416 -0.568682 -38.794021 73.383520 -41.193630 5.214001 -13.197151 10.560432 0.070099 -0.121033 0.038211 -6.803342 -21.294300 9.867754 59.109520 77.697703 59.133788 5.862222 -15.048337 -19.534462 0.000266 0.107794 -0.002682
-219.011724 57.878272 25.415562 173.271816 -49.403727 -3.497161 5.174545 22.399907 3.019616 2.713995 12.829171 1.510428 3.477287 16.027298 2.000022 2.717591 12.830713 1.511193 0.232217 15.381135 3.279453 -0.746830 -7.169590 6.029485 1.749229 2.086494 0.932052 -0.565049 -15.576521 -9.286080 -32.309104 -50.881454 77.087357 11.376739 -4.345739 -27.070839 -9.970095 -0.675715 -0.698786 2.898662 -16.449222 11.986336 27.721722 -12.435343 -85.619338 13.121332 -2.954755 19.260438 4.380471 -22.875507 -0.569896 -38.791053 73.383790 -41.193363 5.217053 -13.201788 10.558187 0.069783 -0.119942 0.036332 -6.801519 -21.292231 9.867055 59.107517 77.699690 59.126755 5.864993 -15.048349 -19.528085 -0.001317 0.109034 -0.003681
-219.011460 57.877688 25.415464 173.273402 -49.404880 -3.500195 5.168658 22.397791 3.019611 2.715538 12.831082 1.509663 3.465619 16.023128 1.997203 2.720625 12.834382 1.508804 0.231499 15.378926 3.278037 -0.747055 -7.168864 6.023771 1.768312 2.062392 0.920195 -0.593322 -15.568680 -9.263956 -32.267647 -50.860366 77.045325 11.396162 -4.332807 -27.043246 -9.969999 -0.688301 -0.693326 2.912188 -16.435162 11.977581 27.716889 -12.449111 -85.602357 13.122019 -2.922823 19.372900 4.372311 -22.874500 -0.566510 -38.786726 73.384723 -41.191920 5.221944 -13.206784 10.554600 0.068388 -0.117708 0.035734 -6.798880 -21.292393 9.873553 59.095571 77.704519 59.113091 5.860046 -15.050459 -19.521130 0.000163 0.110268 -0.003104
-219.011647 57.878234 25.414466 173.275521 -49.415814 -3.501112 5.161393 22.402600 3.019062 2.708768 12.826076 1.508510 3.471079 16.032169 1.994264 2.702971 12.824204 1.510064 0.239903 15.385843 3.270130 -0.749695 -7.168026 6.015962 1.791508 2.071569 0.911486 -0.616089 -15.600337 -9.243923 -32.201452 -50.818669 76.974105 11.433686 -4.308726 -26.991744 -9.958439 -0.695983 -0.697168 2.911454 -16.418079 11.963137 27.722431 -12.470126 -85.564507 13.131840 -2.896443 19.446565 4.365574 -22.863383 -0.565583 -38.783382 73.386848 -41.190495 5.227276 -13.211096 10.549345 0.066824 -0.117278 0.036138 -6.794240 -21.283096 9.872934 59.089507 77.707191 59.108878 5.853729 -15.047121 -19.518000 0.008438 0.104661 -0.001788
-219.012277 57.877890 25.414275 173.279169 -49.420661 -3.501828 5.155025 22.400070 3.017632 2.707113 12.825543 1.507370 3.466704 16.034396 1.994521 2.700789 12.820573 1.508614 0.235595 15.386647 3.264029 -0.755409 -7.166576 6.006138 1.806132 2.059001 0.899242 -0.635297 -15.595667 -9.228516 -32.168162 -50.778913 76.924671 11.487515 -4.232468 -26.897721 -9.961905 -0.708308 -0.695374 2.922094 -16.397800 11.953098 27.729428 -12.483995 -85.544385 13.133281 -2.868127 19.511864 4.359538 -22.859175 -0.567076 -38.781291 73.389259 -41.189885 5.228532 -13.215028 10.545869 0.069347 -0.119671 0.033416 -6.791645 -21.280551 9.871880 59.101906 77.704975 59.120783 5.841666 -15.045309 -19.512390 0.002034 0.102027 -0.002488
-219.013141 57.877423 25.414234 173.276282 -49.425725 -3.496713 5.155114 22.398570 3.014153 2.702759 12.819904 1.508925 3.457501 16.024897 1.993790 2.704817 12.830076 1.506813 0.235486 15.394190 3.258967 -0.770499 -7.172323 5.994120 1.819809 2.050498 0.886512 -0.652398 -15.593557 -9.210576 -32.137252 -50.742937 76.880855 11.531393 -4.174580 -26.828410 -9.969959 -0.717296 -0.692368 2.938171 -16.380252 11.939964 27.730119 -12.491579 -85.525905 13.126476 -2.841871 19.585738 4.360827 -22.854816 -0.570053 -38.779651 73.390810 -41.189240 5.236877 -13.222479 10.537310 0.062550 -0.115542 0.038397 -6.787799 -21.276492 9.866950 59.136955 77.699244 59.150928 5.838380 -15.048759 -19.506371 -0.006596 0.105294 -0.005056
-219.013386 57.877169 25.414199 173.278042 -49.432983 -3.498865 5.147897 22.385848 3.017496 2.703936 12.831704 1.506660 3.455626 16.024170 1.993404 2.703324 12.829515 1.506522 0.222567 15.387654 3.249687 -0.766663 -7.161035 5.988757 1.832291 2.036794 0.874772 -0.666857 -15.584344 -9.193785 -32.109740 -50.707326 76.837950 11.578823 -4.130485 -26.771091 -9.979660 -0.729966 -0.691073 2.952045 -16.364693 11.927586 27.728981 -12.491678 -85.511511 13.111611 -2.816173 19.670563 4.357691 -22.848711 -0.569432 -38.788873 73.393959 -41.198212 5.242765 -13.228680 10.535282 0.060701 -0.114473 0.036972 -6.784660 -21.270786 9.866232 59.136917 77.699969 59.152580 5.847392 -15.045262 -19.505771 -0.000646 0.104877 -0.004204
-219.014299 57.877758 25.413377 173.277692 -49.447952 -3.494619 5.145963 22.396173 3.014547 2.700928 12.826129 1.507716 3.457543 16.031812 1.992098 2.702832 12.829347 1.506473 0.204699 15.372608 3.241312 -0.761276 -7.149094 5.981990 1.839251 2.017885 0.863181 -0.676598 -15.566882 -9.180335 -32.098812 -50.690086 76.819479 11.609410 -4.092889 -26.732316 -10.010018 -0.781578 -0.680525 2.985430 -16.313831 11.914129 27.731206 -12.501515 -85.484942 13.114868 -2.795235 19.695461 4.358374 -22.834456 -0.570667 -38.775092 73.407627 -41.187393 5.233083 -13.242077 10.528445 0.063084 -0.112195 0.040464 -6.773240 -21.255098 9.859737 59.128886 77.697884 59.147680 5.836871 -15.049835 -19.492915 0.000991 0.107502 -0.011066
-219.015090 57.877079 25.413735 173.274114 -49.453961 -3.489040 5.146029 22.397778 3.011304 2.697983 12.816056 1.509754 3.453446 16.037153 1.991784 2.700409 12.829228 1.507234 0.198347 15.370606 3.230466 -0.779000 -7.157676 5.963227 1.854642 2.002834 0.847974 -0.695360 -15.562849 -9.156760 -32.058322 -50.665021 76.776780 11.645585 -4.045809 -26.692639 -10.020113 -0.800780 -0.681922 3.001862 -16.289545 11.906057 27.731902 -12.508967 -85.463980 13.116804 -2.777865 19.725528 4.354645 -22.831991 -0.565849 -38.780105 73.410041 -41.199603 5.211775 -13.245903 10.521322 0.057883 -0.113209 0.042787 -6.760910 -21.249336 9.853633 59.112333 77.693810 59.136428 5.832674 -15.051201 -19.485455 0.004031 0.110998 -0.013616
-219.014938 57.877198 25.413679 173.272144 -49.466452 -3.489531 5.148030 22.391525 3.017594 2.694120 12.819450 1.507467 3.448205 16.025808 1.995146 2.693871 12.821001 1.508750 0.202826 15.401863 3.219614 -0.843039 -7.195964 5.922403 1.881146 1.981514 0.817151 -0.720972 -15.532262 -9.120904 -32.023729 -50.624118 76.724578 11.698154 -3.987368 -26.642566 -10.025487 -0.795028 -0.689946 3.013035 -16.278209 11.897781 27.730281 -12.524703 -85.413096 13.136510 -2.743475 19.777056 4.353812 -22.820551 -0.560498 -38.775069 73.411272 -41.195541 5.208012 -13.248212 10.516806 0.053891 -0.111185 0.045083 -6.750818 -21.233615 9.851092 59.093770 77.687021 59.126121 5.826071 -15.055696 -19.484902 0.010009 0.116541 -0.008428
-219.016030 57.876711 25.413934 173.273347 -49.475165 -3.484807 5.145838 22.393798 3.012422 2.689359 12.813740 1.506995 3.445627 16.017516 1.995869 2.692398 12.818254 1.509577 0.187693 15.404905 3.204471 -0.879161 -7.205485 5.896077 1.897358 1.974906 0.803371 -0.730075 -15.528304 -9.101517 -31.985295 -50.582726 76.660516 11.739657 -3.949174 -26.600195 -10.032984 -0.797491 -0.688677 3.028122 -16.261538 11.889643 27.723422 -12.530005 -85.386097 13.144798 -2.726893 19.845298 4.350482 -22.816443 -0.561630 -38.764877 73.421740 -41.192888 5.199334 -13.248473 10.513400 0.055336 -0.117168 0.045555 -6.744837 -21.224331 9.844619 59.070454 77.685025 59.098782 5.829046 -15.056181 -19.475861 0.006755 0.121099 -0.009046
-219.015822 57.876975 25.413828 173.267090 -49.489976 -3.481414 5.144129 22.394150 3.010715 2.694338 12.823693 1.509017 3.438725 15.993670 1.996947 2.692557 12.820873 1.509715 0.170646 15.406167 3.190190 -0.905312 -7.205450 5.873910 1.912592 1.970510 0.791045 -0.741421 -15.529651 -9.082517 -31.930532 -50.515942 76.571550 11.797090 -3.925562 -26.542398 -10.039147 -0.798290 -0.685609 3.043390 -16.245393 11.876153 27.716952 -12.528789 -85.366477 13.138566 -2.707584 19.917940 4.352490 -22.806936 -0.554385 -38.774473 73.426501 -41.206661 5.194068 -13.244847 10.511900 0.065874 -0.125246 0.045251 -6.738222 -21.209001 9.844962 59.061657 77.683819 59.088724 5.830637 -15.053445 -19.472329 0.003052 0.120618 -0.010173
-219.016222 57.876535 25.414162 173.265666 -49.499615 -3.477798 5.138318 22.374364 3.008480 2.695464 12.834103 1.507859 3.436530 15.995707 1.999034 2.689144 12.811367 1.509969 0.155022 15.407352 3.174907 -0.922400 -7.197827 5.859374 1.925375 1.967529 0.779589 -0.742082 -15.532392 -9.062925 -31.893645 -50.476826 76.508335 11.828204 -3.883526 -26.495382 -10.047088 -0.800258 -0.680598 3.062162 -16.228204 11.857675 27.709665 -12.538940 -85.328575 13.148458 -2.682924 19.972585 4.347934 -22.800225 -0.553418 -38.770708 73.431351 -41.208588 5.190391 -13.246543 10.509921 0.054767 -0.130396 0.039034 -6.735191 -21.199804 9.841067 59.057247 77.681437 59.084121 5.828438 -15.050848 -19.471639 0.010200 0.119373 -0.007032
